<?xml version="1.0" encoding="UTF-8"?>
<svg viewBox="0 0 640 480" xmlns="http://www.w3.org/2000/svg">Clipart by Nicu Buculei - baloon1_04Nicu Buculei
 <g fill-rule="evenodd">
  <g stroke-linejoin="round" stroke-width="2.5">
   <path d="m320.13 211.7c0 9.046-28.366 17.564-73.652 17.564s-70.691-7.9296-70.691-16.976c0-9.046 25.406-15.8 70.691-15.8 45.286 0 73.652 6.1657 73.652 15.212z" fill="#ffaa56"/>
   <g fill="#7573ae" stroke="#000">
    <path d="m309.82 394.17c0 11.94-25.957 21.63-57.939 21.63s-57.939-9.6901-57.939-21.63 25.957-21.63 57.939-21.63 57.939 9.6901 57.939 21.63z" fill-opacity=".149"/>
    <path d="m327.91 119.81c0 13.28-36.754 24.057-82.039 24.057-45.286 0-82.039-10.778-82.039-24.057 0-13.28 36.754-24.057 82.039-24.057 45.286 0 82.039 10.778 82.039 24.057z" fill-opacity=".15"/>
   </g>
   <path d="m174.79 212.23l19.212 184.76c9.2468 9.6946 23.305 15.232 59.385 16.777 24.053-2.092 37.305-2.4612 54.12-16.777 1.7181-2.7894 11.992-184.24 11.992-184.24-6.0134 8.3681-30.507 14.941-70.883 15.638-39.151 0.588-73.826-7.7802-73.826-16.148z" fill="#ffaa56"/>
   <path d="m163.83 121.33l30.067 276.4c0.85904 8.1897 25.772 21.498 61.852 19.451 24.053-3.0711 37.798-1.0237 54.12-19.451 1.7181-4.0949 17.419-274.79 17.419-274.79-6.0134 12.285-38.895 21.934-79.27 22.958-38.657 0-84.187-12.285-84.187-24.569z" fill="#7573ae" fill-opacity=".15" stroke="#000"/>
  </g>
  <path d="m169.98 133.57c2.3731 0.63438 40.828 16.673 51.851 12.54 4.4963-0.96152 12.552 255.99 11.403 263.97-12.422 0.36706-25.291-4.1932-35.377-13.709l-27.877-262.8z" fill="#fff" fill-opacity=".5" stroke-width="1.25"/>
 </g>
</svg>
